<svg xmlns="http://www.w3.org/2000/svg" viewBox="0 0 128 128" width="128" height="128">
  <defs>
    <linearGradient id="shieldGrad" x1="0%" y1="0%" x2="100%" y2="100%">
      <stop offset="0%" style="stop-color:#6366f1"/>
      <stop offset="100%" style="stop-color:#7c3aed"/>
    </linearGradient>
    <linearGradient id="lockGrad" x1="0%" y1="0%" x2="100%" y2="100%">
      <stop offset="0%" style="stop-color:#ffffff"/>
      <stop offset="100%" style="stop-color:#c7d2fe"/>
    </linearGradient>
  </defs>
  <!-- Shield -->
  <path d="M64 8 L112 28 L112 60 C112 90 90 112 64 120 C38 112 16 90 16 60 L16 28 Z" 
        fill="url(#shieldGrad)" stroke="none"/>
  <!-- Inner glow -->
  <path d="M64 16 L104 33 L104 60 C104 85 85 105 64 112 C43 105 24 85 24 60 L24 33 Z" 
        fill="rgba(255,255,255,0.08)" stroke="none"/>
  <!-- Lock body -->
  <rect x="48" y="62" width="32" height="26" rx="4" fill="url(#lockGrad)"/>
  <!-- Lock shackle -->
  <path d="M52 62 L52 50 C52 40 76 40 76 50 L76 62" fill="none" stroke="url(#lockGrad)" stroke-width="5" stroke-linecap="round"/>
  <!-- Keyhole -->
  <circle cx="64" cy="72" r="4" fill="#6366f1"/>
  <rect x="62" y="74" width="4" height="8" rx="1" fill="#6366f1"/>
</svg>
